<?xml version="1.0" encoding="utf-8"?>
<!-- Generator: Adobe Illustrator 25.2.1, SVG Export Plug-In . SVG Version: 6.00 Build 0)  -->
<svg version="1.1" id="Layer_1" xmlns="http://www.w3.org/2000/svg" xmlns:xlink="http://www.w3.org/1999/xlink" x="0px" y="0px"
	 viewBox="0 0 93.7 107.5" style="enable-background:new 0 0 93.7 107.5;" xml:space="preserve">
<style type="text/css">
	.st0{fill-rule:evenodd;clip-rule:evenodd;fill:#E5F1DB;}
	.st1{fill-rule:evenodd;clip-rule:evenodd;fill:#2AB999;}
	.st2{fill-rule:evenodd;clip-rule:evenodd;fill:#18A086;}
	.st3{fill-rule:evenodd;clip-rule:evenodd;fill:#15836E;}
	.st4{fill-rule:evenodd;clip-rule:evenodd;fill:#D5E5E5;}
	.st5{fill:#F8B32B;}
	.st6{fill-rule:evenodd;clip-rule:evenodd;fill:#FFFFFF;}
	.st7{fill-rule:evenodd;clip-rule:evenodd;fill:#A6B6B6;}
	.st8{display:none;}
	.st9{display:inline;fill:#2AB998;}
	.st10{font-family:'AkiraExpanded-SuperBold';}
	.st11{font-size:31.6221px;}
</style>
<g>
	<path class="st0" d="M48.8,95.9c-21.2-0.2-38.2-17.5-38-38.7C11,36,28.4,19,49.5,19.2c21.2,0.2,38.2,17.5,38,38.7
		C87.3,79.1,70,96.1,48.8,95.9L48.8,95.9z"/>
	
		<rect x="24" y="28.3" transform="matrix(9.560646e-03 -1 1 9.560646e-03 4.187933e-02 103.2553)" class="st1" width="56.3" height="46.6"/>
	<path class="st2" d="M29.1,23.2c-2.9,0-5.8,1.9-5.9,6.3c-0.2,18.8-0.4,37.5-0.5,56.3c0.1-5.6,2.7-6.3,5.9-6.4
		C28.8,60.8,28.9,42,29.1,23.2L29.1,23.2z"/>
	<path class="st3" d="M75.1,86l0.1-6c-15.5-0.1-31.1-0.3-46.6-0.4c-4.1,0-5.8,1.9-5.9,5.9c0,4.1,1.6,6,5.8,6.1
		C44,91.7,59.5,91.8,75.1,92L75.1,86z"/>
	<path class="st4" d="M26,79.9c0.8-0.2,1.7-0.3,2.6-0.3L73.4,80l-0.1,8.5L25.9,88C26,85.3,26,82.6,26,79.9L26,79.9z"/>
	
		<rect x="28" y="31.6" transform="matrix(9.560646e-03 -1 1 9.560646e-03 4.592842e-02 103.2512)" class="st1" width="48.3" height="40"/>
	<path class="st5" d="M32.4,26.9l40,0.4l0.4,0l0,0.4L72.3,76l0,0.4l-0.4,0l-40-0.4l-0.4,0l0-0.4L32,27.2l0-0.4L32.4,26.9z M72,28
		l-39.2-0.4l-0.5,47.5l39.2,0.4L72,28z"/>
	
		<rect x="30.1" y="33.4" transform="matrix(9.560646e-03 -1 1 9.560646e-03 4.213982e-02 103.2556)" class="st1" width="44.1" height="36.5"/>
	<path class="st5" d="M34.1,29l36.5,0.3l0.4,0l0,0.4l-0.4,44.1l0,0.4l-0.4,0l-36.5-0.3l-0.4,0l0-0.4l0.4-44.1l0-0.4L34.1,29z
		 M70.2,30.1l-35.7-0.3l-0.4,43.3l35.7,0.3L70.2,30.1z"/>
	<path class="st5" d="M50.5,71.3c-2-1.3-3.6-3-4.6-4.9c-0.9-1.7-1.2-3.6-0.6-5.3c-1.2-1.1-2.1-2.5-2.8-4.1c-0.7-1.6-1-3.4-1-5.3
		c0-2,0.5-3.9,1.3-5.6c0.8-1.6,1.9-3.1,3.2-4.1c-0.7-2.3-0.5-4.3,0.2-5.9c0.9-1.9,2.5-3.4,4.7-4.5l0.2-0.1l0.2,0.1
		c2.1,1.1,3.8,2.7,4.6,4.6c0.7,1.7,0.9,3.7,0.1,6c1.3,1.1,2.4,2.5,3.1,4.2c0.7,1.7,1.2,3.6,1.1,5.6c0,1.9-0.4,3.7-1.1,5.3
		c-0.7,1.6-1.7,2.9-2.9,4c0.5,1.8,0.2,3.6-0.7,5.3c-1,1.8-2.6,3.5-4.6,4.8l-0.2,0.1L50.5,71.3z M46.6,66.1c0.8,1.7,2.3,3.2,4.1,4.4
		c1.8-1.2,3.3-2.7,4.2-4.3c0.8-1.6,1.1-3.3,0.6-4.9l0-0.1l0-0.2l0-0.2l0.1-0.1c1.2-1,2.1-2.3,2.8-3.9c0.6-1.5,1-3.2,1-4.9
		c0-1.9-0.4-3.7-1.1-5.3c-0.7-1.6-1.8-3-3.1-4l-0.1-0.1l0-0.2l0-0.1l0-0.1c0.7-2.1,0.6-4,0-5.5c-0.7-1.7-2.2-3.1-4.1-4.1
		c-1.9,1-3.4,2.3-4.2,4c-0.7,1.5-0.8,3.4-0.1,5.5l0,0.1l0,0.1l0,0.2l-0.1,0.1c-1.3,1-2.4,2.3-3.1,3.9c-0.7,1.6-1.2,3.3-1.2,5.2
		c0,1.8,0.3,3.5,0.9,5c0.6,1.5,1.6,2.9,2.7,3.9l0.1,0.1l0,0.2l0,0.2l0,0.1C45.6,62.8,45.8,64.5,46.6,66.1L46.6,66.1z"/>
	<path class="st6" d="M52.7,45.6l0.8,2.6l2.7,0L54,49.8l0.8,2.6l-2.1-1.6l-2.2,1.6l0.9-2.5l-2.2-1.6l2.7,0L52.7,45.6z M50.9,45.2
		c0.2,0,0.5,0,0.7,0c-2.4,0.3-4.4,2.4-4.4,4.9c0,2.7,2.2,5,4.9,5c2.5,0,4.7-1.8,5-4.3c0,0.2,0,0.5,0,0.7c0,3.5-2.9,6.3-6.4,6.3
		c-3.5,0-6.3-2.9-6.3-6.4C44.6,48,47.4,45.1,50.9,45.2L50.9,45.2z"/>
	
		<rect x="46.3" y="49.7" transform="matrix(9.560646e-03 -1 1 9.560646e-03 15.5151 119.1626)" class="st2" width="43.3" height="4.1"/>
	<path class="st2" d="M58.1,42.3l0,0.1c2.6,2.1,4.3,5.6,4.3,9.6c0,3.7-1.6,7.1-4,9.1l0,0.2c1.2,3.9-1.8,8.2-6.4,10.5
		c-0.4-0.2-0.9-0.5-1.3-0.7c3.9-2.4,6.2-6.3,5.2-9.8l0-0.2c2.4-2.1,4-5.4,4-9.1c0-4-1.7-7.5-4.3-9.6l0-0.1c1.6-4.7-0.6-8.1-4.5-10.2
		c0.4-0.2,0.8-0.4,1.3-0.6C57,33.5,59.9,37.1,58.1,42.3L58.1,42.3z"/>
	<path class="st5" d="M57.7,42.4l0-0.1l0-0.1c0.8-2.3,0.6-4.3-0.3-6c-1-1.8-2.8-3.3-5.1-4.3c-0.1,0.1-0.3,0.1-0.4,0.2
		c1.8,1.1,3.2,2.5,3.9,4.2c0.7,1.7,0.9,3.7,0.1,6c1.3,1.1,2.4,2.5,3.1,4.2c0.7,1.7,1.2,3.6,1.1,5.6c0,1.9-0.4,3.7-1.1,5.3
		c-0.7,1.6-1.7,2.9-2.9,4c0.5,1.8,0.2,3.6-0.7,5.3c-0.9,1.7-2.3,3.2-4.1,4.4l0.1,0.1c0.2,0.1,0.3,0.2,0.4,0.3c2.2-1.1,4-2.8,5.1-4.6
		c1.1-1.7,1.5-3.6,0.9-5.4l0-0.1l0-0.2l0-0.2l0.1-0.1c1.2-1,2.1-2.3,2.8-3.9c0.6-1.5,1-3.2,1-4.9c0-1.9-0.4-3.7-1.1-5.3
		c-0.7-1.6-1.8-3-3.1-4l-0.1-0.1L57.7,42.4z M58.5,42.2c1.3,1.1,2.4,2.5,3.1,4.2c0.7,1.7,1.2,3.6,1.1,5.6c0,1.9-0.4,3.7-1.1,5.3
		c-0.7,1.6-1.7,2.9-2.9,4c0.5,2,0.1,4-1,5.9c-1.2,2-3.2,3.7-5.6,4.9l-0.2,0.1l-0.2-0.1c-0.2-0.1-0.5-0.2-0.7-0.4
		c-0.2-0.1-0.4-0.3-0.6-0.4L50,71l0.5-0.3c1.9-1.2,3.5-2.8,4.4-4.5c0.8-1.6,1.1-3.3,0.6-4.9l0-0.1l0-0.2l0-0.2l0.1-0.1
		c1.2-1,2.1-2.3,2.8-3.9c0.6-1.5,1-3.2,1-4.9c0-1.9-0.4-3.7-1.1-5.3c-0.7-1.6-1.8-3-3.1-4l-0.1-0.1l0-0.2l0-0.1l0-0.1
		c0.7-2.1,0.6-4,0-5.5c-0.8-1.7-2.3-3.1-4.3-4.2L50.2,32l0.7-0.3c0.2-0.1,0.4-0.2,0.6-0.3c0.2-0.1,0.4-0.2,0.7-0.3l0.3,0
		c2.6,1.1,4.6,2.6,5.7,4.7C59.1,37.6,59.3,39.8,58.5,42.2L58.5,42.2z"/>
	<path class="st7" d="M26,79.9c0.8-0.2,1.7-0.3,2.6-0.3L73.4,80l0,2.7c-14.9-0.1-29.8-0.3-44.7-0.4c-0.9,0-1.8,0-2.7,0.3
		C26,81.7,26,80.8,26,79.9L26,79.9z"/>
	<text transform="matrix(1 0 0 1 -66.8228 30.5529)" class="st8"><tspan x="0" y="0" class="st9 st10 st11">Ramadan</tspan><tspan x="0" y="37.9" class="st9 st10 st11">step</tspan></text>
</g>
</svg>
