<?xml version="1.0" encoding="utf-8"?>
<!-- Generator: Adobe Illustrator 25.2.1, SVG Export Plug-In . SVG Version: 6.00 Build 0)  -->
<svg version="1.1" id="Layer_1" xmlns="http://www.w3.org/2000/svg" xmlns:xlink="http://www.w3.org/1999/xlink" x="0px" y="0px"
	 viewBox="0 0 1000 606.5" style="enable-background:new 0 0 1000 606.5;" xml:space="preserve">
<style type="text/css">
	.st0{fill:none;}
	.st1{clip-path:url(#SVGID_2_);}
	.st2{fill:none;stroke:#FFFFFF;stroke-width:1.5;stroke-linejoin:round;stroke-miterlimit:10;}
	.st3{filter:url(#Adobe_OpacityMaskFilter);}
	.st4{fill:url(#Nueva_muestra_de_motivo_20);}
	.st5{mask:url(#SVGID_3_);fill:url(#SVGID_4_);}
</style>
<pattern  width="148.6" height="148.6" patternUnits="userSpaceOnUse" id="Nueva_muestra_de_motivo_20" viewBox="63.4 -212 148.6 148.6" style="overflow:visible;">
	<g>
		<rect x="63.4" y="-212" class="st0" width="148.6" height="148.6"/>
		<g>
			<defs>
				<rect id="SVGID_1_" x="63.4" y="-212" width="148.6" height="148.6"/>
			</defs>
			<clipPath id="SVGID_2_">
				<use xlink:href="#SVGID_1_"  style="overflow:visible;"/>
			</clipPath>
			<g class="st1">
				<g>
					<g>
						<polygon class="st2" points="150.1,-137.7 152.7,-143.9 146.5,-146.5 143.9,-152.7 137.7,-150.1 131.5,-152.7 128.9,-146.5 
							122.7,-143.9 125.3,-137.7 122.7,-131.5 128.9,-128.9 131.5,-122.7 137.7,-125.3 143.9,-122.7 146.5,-128.9 152.7,-131.5 
													"/>
						<g>
							<polyline class="st2" points="131.5,-152.7 137.7,-183.2 143.9,-152.7 							"/>
							<polyline class="st2" points="143.9,-122.7 137.7,-92.2 131.5,-122.7 							"/>
							<polyline class="st2" points="122.7,-131.5 92.2,-137.7 122.7,-143.9 							"/>
							<polyline class="st2" points="152.7,-143.9 183.2,-137.7 152.7,-131.5 							"/>
							<polyline class="st2" points="131.5,-122.7 105.6,-105.6 122.7,-131.5 							"/>
							<polyline class="st2" points="143.9,-152.7 169.9,-169.9 152.7,-143.9 							"/>
							<polyline class="st2" points="122.7,-143.9 105.6,-169.9 131.5,-152.7 							"/>
							<polyline class="st2" points="152.7,-131.5 169.9,-105.6 143.9,-122.7 							"/>
						</g>
						<g>
							<polygon class="st2" points="127.6,-186.2 116.2,-190.5 110.5,-179 131.5,-152.7 							"/>
							<polygon class="st2" points="164.8,-179.2 159.2,-190.5 147.7,-186.2 143.9,-152.7 							"/>
							<polygon class="st2" points="147.8,-89.2 159.2,-84.9 165,-96.4 143.9,-122.7 							"/>
							<polygon class="st2" points="110.6,-96.3 116.2,-84.9 127.8,-89.2 131.5,-122.7 							"/>
							<polygon class="st2" points="130.7,-190.3 127.6,-194.3 133.7,-194.3 133.7,-200.4 137.7,-197.3 141.8,-200.4 141.8,-194.3 
								147.8,-194.3 144.8,-190.3 147.8,-186.2 141.8,-186.2 141.8,-180.1 137.7,-183.2 133.7,-180.1 133.7,-186.2 127.6,-186.2 
															"/>
							<polygon class="st2" points="130.7,-85.2 127.6,-89.2 133.7,-89.2 133.7,-95.3 137.7,-92.2 141.8,-95.3 141.8,-89.2 
								147.8,-89.2 144.8,-85.2 147.8,-81.1 141.8,-81.1 141.8,-75.1 137.7,-78.1 133.7,-75.1 133.7,-81.1 127.6,-81.1 							"/>
						</g>
						<g>
							<polygon class="st2" points="186.2,-147.8 190.5,-159.2 179,-165 152.7,-143.9 							"/>
							<polygon class="st2" points="179.2,-110.6 190.5,-116.2 186.2,-127.8 152.7,-131.5 							"/>
							<polygon class="st2" points="89.2,-127.6 84.9,-116.2 96.4,-110.5 122.7,-131.5 							"/>
							<polygon class="st2" points="96.3,-164.8 84.9,-159.2 89.2,-147.7 122.7,-143.9 							"/>
							<polygon class="st2" points="190.3,-144.8 194.3,-147.8 194.3,-141.8 200.4,-141.8 197.3,-137.7 200.4,-133.7 194.3,-133.7 
								194.3,-127.6 190.3,-130.7 186.2,-127.6 186.2,-133.7 180.1,-133.7 183.2,-137.7 180.1,-141.8 186.2,-141.8 186.2,-147.8 
															"/>
							<polygon class="st2" points="85.2,-144.8 89.2,-147.8 89.2,-141.8 95.3,-141.8 92.2,-137.7 95.3,-133.7 89.2,-133.7 
								89.2,-127.6 85.2,-130.7 81.1,-127.6 81.1,-133.7 75.1,-133.7 78.1,-137.7 75.1,-141.8 81.1,-141.8 81.1,-147.8 							"/>
						</g>
					</g>
					<g>
						<polygon class="st2" points="95.6,-169.9 90.5,-170.6 94.8,-174.9 90.5,-179.2 95.6,-179.9 96.3,-184.9 100.6,-180.6 
							104.9,-184.9 105.6,-179.9 110.6,-179.2 106.3,-174.9 110.6,-170.6 105.6,-169.9 104.9,-164.8 100.6,-169.1 96.3,-164.8 
													"/>
						<polygon class="st2" points="169.9,-95.6 164.8,-96.3 169.1,-100.6 164.8,-104.9 169.9,-105.6 170.6,-110.6 174.9,-106.3 
							179.2,-110.6 179.9,-105.6 184.9,-104.9 180.6,-100.6 184.9,-96.3 179.9,-95.6 179.2,-90.5 174.9,-94.8 170.6,-90.5 						"/>
					</g>
					<g>
						<polygon class="st2" points="169.9,-179.9 170.6,-184.9 174.9,-180.6 179.2,-184.9 179.9,-179.9 184.9,-179.2 180.6,-174.9 
							184.9,-170.6 179.9,-169.9 179.2,-164.8 174.9,-169.1 170.6,-164.8 169.9,-169.9 164.8,-170.6 169.1,-174.9 164.8,-179.2 
													"/>
						<polygon class="st2" points="95.6,-105.6 96.3,-110.6 100.6,-106.3 104.9,-110.6 105.6,-105.6 110.6,-104.9 106.3,-100.6 
							110.6,-96.3 105.6,-95.6 104.9,-90.5 100.6,-94.8 96.3,-90.5 95.6,-95.6 90.5,-96.3 94.8,-100.6 90.5,-104.9 						"/>
					</g>
				</g>
				<g>
					<g>
						<polygon class="st2" points="224.5,-63.4 227,-69.6 220.8,-72.2 218.2,-78.4 212,-75.8 205.8,-78.4 203.2,-72.2 197,-69.6 
							199.6,-63.4 197,-57.2 203.2,-54.6 205.8,-48.4 212,-51 218.2,-48.4 220.8,-54.6 227,-57.2 						"/>
						<g>
							<polyline class="st2" points="205.8,-78.4 212,-108.9 218.2,-78.4 							"/>
							<polyline class="st2" points="218.2,-48.4 212,-17.9 205.8,-48.4 							"/>
							<polyline class="st2" points="197,-57.2 166.6,-63.4 197,-69.6 							"/>
							<polyline class="st2" points="227,-69.6 257.5,-63.4 227,-57.2 							"/>
							<polyline class="st2" points="205.8,-48.4 179.9,-31.3 197,-57.2 							"/>
							<polyline class="st2" points="218.2,-78.4 244.2,-95.6 227,-69.6 							"/>
							<polyline class="st2" points="197,-69.6 179.9,-95.6 205.8,-78.4 							"/>
							<polyline class="st2" points="227,-57.2 244.2,-31.3 218.2,-48.4 							"/>
						</g>
						<g>
							<polygon class="st2" points="201.9,-111.9 190.5,-116.2 184.8,-104.7 205.8,-78.4 							"/>
							<polygon class="st2" points="239.1,-104.9 234.1,-116.8 222,-111.9 218.2,-78.4 							"/>
							<polygon class="st2" points="222.1,-14.9 234.1,-10 239.3,-22.1 218.2,-48.4 							"/>
							<polygon class="st2" points="184.9,-22 189.9,-10 202.1,-14.9 205.8,-48.4 							"/>
							<polygon class="st2" points="205,-116 201.9,-120 208,-120 208,-126.1 212,-123 216.1,-126.1 216.1,-120 222.1,-120 
								219.1,-116 222.1,-111.9 216.1,-111.9 216.1,-105.8 212,-108.9 208,-105.8 208,-111.9 201.9,-111.9 							"/>
							<polygon class="st2" points="205,-10.9 201.9,-14.9 208,-14.9 208,-21 212,-17.9 216.1,-21 216.1,-14.9 222.1,-14.9 
								219.1,-10.9 222.1,-6.8 216.1,-6.8 216.1,-0.8 212,-3.8 208,-0.8 208,-6.8 201.9,-6.8 							"/>
						</g>
						<g>
							<polygon class="st2" points="260.5,-73.5 265.4,-85.5 253.4,-90.6 227,-69.6 							"/>
							<polygon class="st2" points="253.5,-36.3 265.4,-41.3 260.5,-53.5 227,-57.2 							"/>
							<polygon class="st2" points="163.5,-53.3 158.6,-41.3 170.7,-36.2 197,-57.2 							"/>
							<polygon class="st2" points="170.6,-90.5 159.2,-84.9 163.5,-73.4 197,-69.6 							"/>
							<polygon class="st2" points="264.6,-70.5 268.6,-73.5 268.6,-67.5 274.7,-67.5 271.6,-63.4 274.7,-59.3 268.6,-59.3 
								268.6,-53.3 264.6,-56.3 260.5,-53.3 260.5,-59.3 254.4,-59.3 257.5,-63.4 254.4,-67.5 260.5,-67.5 260.5,-73.5 							"/>
							<polygon class="st2" points="159.5,-70.5 163.5,-73.5 163.5,-67.5 169.6,-67.5 166.6,-63.4 169.6,-59.3 163.5,-59.3 
								163.5,-53.3 159.5,-56.3 155.4,-53.3 155.4,-59.3 149.4,-59.3 152.4,-63.4 149.4,-67.5 155.4,-67.5 155.4,-73.5 							"/>
						</g>
					</g>
					<g>
						<polygon class="st2" points="169.9,-95.6 164.8,-96.3 169.1,-100.6 164.8,-104.9 169.9,-105.6 170.6,-110.6 174.9,-106.3 
							179.2,-110.6 179.9,-105.6 184.9,-104.9 180.6,-100.6 184.9,-96.3 179.9,-95.6 179.2,-90.5 174.9,-94.8 170.6,-90.5 						"/>
						<polygon class="st2" points="244.2,-21.3 239.1,-22 243.4,-26.3 239.1,-30.5 244.2,-31.3 244.9,-36.3 249.2,-32 253.5,-36.3 
							254.2,-31.3 259.2,-30.5 254.9,-26.3 259.2,-22 254.2,-21.3 253.5,-16.2 249.2,-20.5 244.9,-16.2 						"/>
					</g>
					<g>
						<polygon class="st2" points="244.2,-105.6 244.9,-110.6 249.2,-106.3 253.5,-110.6 254.2,-105.6 259.2,-104.9 254.9,-100.6 
							259.2,-96.3 254.2,-95.6 253.5,-90.5 249.2,-94.8 244.9,-90.5 244.2,-95.6 239.1,-96.3 243.4,-100.6 239.1,-104.9 						"/>
						<polygon class="st2" points="169.9,-31.3 170.6,-36.3 174.9,-32 179.2,-36.3 179.9,-31.3 184.9,-30.5 180.6,-26.3 184.9,-22 
							179.9,-21.3 179.2,-16.2 174.9,-20.5 170.6,-16.2 169.9,-21.3 164.8,-22 169.1,-26.3 164.8,-30.5 						"/>
					</g>
				</g>
				<g>
					<g>
						<polygon class="st2" points="75.8,-63.4 78.4,-69.6 72.2,-72.2 69.6,-78.4 63.4,-75.8 57.2,-78.4 54.6,-72.2 48.4,-69.6 
							51,-63.4 48.4,-57.2 54.6,-54.6 57.2,-48.4 63.4,-51 69.6,-48.4 72.2,-54.6 78.4,-57.2 						"/>
						<g>
							<polyline class="st2" points="57.2,-78.4 63.4,-108.9 69.6,-78.4 							"/>
							<polyline class="st2" points="69.6,-48.4 63.4,-17.9 57.2,-48.4 							"/>
							<polyline class="st2" points="48.4,-57.2 17.9,-63.4 48.4,-69.6 							"/>
							<polyline class="st2" points="78.4,-69.6 108.9,-63.4 78.4,-57.2 							"/>
							<polyline class="st2" points="57.2,-48.4 31.3,-31.3 48.4,-57.2 							"/>
							<polyline class="st2" points="69.6,-78.4 95.6,-95.6 78.4,-69.6 							"/>
							<polyline class="st2" points="48.4,-69.6 31.3,-95.6 57.2,-78.4 							"/>
							<polyline class="st2" points="78.4,-57.2 95.6,-31.3 69.6,-48.4 							"/>
						</g>
						<g>
							<polygon class="st2" points="53.3,-111.9 41.3,-116.8 36.2,-104.7 57.2,-78.4 							"/>
							<polygon class="st2" points="90.5,-104.9 84.9,-116.2 73.4,-111.9 69.6,-78.4 							"/>
							<polygon class="st2" points="73.5,-14.9 85.5,-10 90.6,-22.1 69.6,-48.4 							"/>
							<polygon class="st2" points="36.3,-22 41.3,-10 53.5,-14.9 57.2,-48.4 							"/>
							<polygon class="st2" points="56.3,-116 53.3,-120 59.3,-120 59.3,-126.1 63.4,-123 67.5,-126.1 67.5,-120 73.5,-120 
								70.5,-116 73.5,-111.9 67.5,-111.9 67.5,-105.8 63.4,-108.9 59.3,-105.8 59.3,-111.9 53.3,-111.9 							"/>
							<polygon class="st2" points="56.3,-10.9 53.3,-14.9 59.3,-14.9 59.3,-21 63.4,-17.9 67.5,-21 67.5,-14.9 73.5,-14.9 
								70.5,-10.9 73.5,-6.8 67.5,-6.8 67.5,-0.8 63.4,-3.8 59.3,-0.8 59.3,-6.8 53.3,-6.8 							"/>
						</g>
						<g>
							<polygon class="st2" points="111.9,-73.5 116.2,-84.9 104.7,-90.6 78.4,-69.6 							"/>
							<polygon class="st2" points="104.9,-36.3 116.8,-41.3 111.9,-53.5 78.4,-57.2 							"/>
							<polygon class="st2" points="14.9,-53.3 10,-41.3 22.1,-36.2 48.4,-57.2 							"/>
							<polygon class="st2" points="22,-90.5 10,-85.5 14.9,-73.4 48.4,-69.6 							"/>
							<polygon class="st2" points="116,-70.5 120,-73.5 120,-67.5 126.1,-67.5 123,-63.4 126.1,-59.3 120,-59.3 120,-53.3 
								116,-56.3 111.9,-53.3 111.9,-59.3 105.8,-59.3 108.9,-63.4 105.8,-67.5 111.9,-67.5 111.9,-73.5 							"/>
							<polygon class="st2" points="10.9,-70.5 14.9,-73.5 14.9,-67.5 21,-67.5 17.9,-63.4 21,-59.3 14.9,-59.3 14.9,-53.3 
								10.9,-56.3 6.8,-53.3 6.8,-59.3 0.8,-59.3 3.8,-63.4 0.8,-67.5 6.8,-67.5 6.8,-73.5 							"/>
						</g>
					</g>
					<g>
						<polygon class="st2" points="21.3,-95.6 16.2,-96.3 20.5,-100.6 16.2,-104.9 21.3,-105.6 22,-110.6 26.3,-106.3 30.5,-110.6 
							31.3,-105.6 36.3,-104.9 32,-100.6 36.3,-96.3 31.3,-95.6 30.5,-90.5 26.3,-94.8 22,-90.5 						"/>
						<polygon class="st2" points="95.6,-21.3 90.5,-22 94.8,-26.3 90.5,-30.5 95.6,-31.3 96.3,-36.3 100.6,-32 104.9,-36.3 
							105.6,-31.3 110.6,-30.5 106.3,-26.3 110.6,-22 105.6,-21.3 104.9,-16.2 100.6,-20.5 96.3,-16.2 						"/>
					</g>
					<g>
						<polygon class="st2" points="95.6,-105.6 96.3,-110.6 100.6,-106.3 104.9,-110.6 105.6,-105.6 110.6,-104.9 106.3,-100.6 
							110.6,-96.3 105.6,-95.6 104.9,-90.5 100.6,-94.8 96.3,-90.5 95.6,-95.6 90.5,-96.3 94.8,-100.6 90.5,-104.9 						"/>
						<polygon class="st2" points="21.3,-31.3 22,-36.3 26.3,-32 30.5,-36.3 31.3,-31.3 36.3,-30.5 32,-26.3 36.3,-22 31.3,-21.3 
							30.5,-16.2 26.3,-20.5 22,-16.2 21.3,-21.3 16.2,-22 20.5,-26.3 16.2,-30.5 						"/>
					</g>
				</g>
				<g>
					<g>
						<polygon class="st2" points="224.5,-212 227,-218.2 220.8,-220.8 218.2,-227 212,-224.5 205.8,-227 203.2,-220.8 197,-218.2 
							199.6,-212 197,-205.8 203.2,-203.2 205.8,-197 212,-199.6 218.2,-197 220.8,-203.2 227,-205.8 						"/>
						<g>
							<polyline class="st2" points="205.8,-227 212,-257.5 218.2,-227 							"/>
							<polyline class="st2" points="218.2,-197 212,-166.6 205.8,-197 							"/>
							<polyline class="st2" points="197,-205.8 166.6,-212 197,-218.2 							"/>
							<polyline class="st2" points="227,-218.2 257.5,-212 227,-205.8 							"/>
							<polyline class="st2" points="205.8,-197 179.9,-179.9 197,-205.8 							"/>
							<polyline class="st2" points="218.2,-227 244.2,-244.2 227,-218.2 							"/>
							<polyline class="st2" points="197,-218.2 179.9,-244.2 205.8,-227 							"/>
							<polyline class="st2" points="227,-205.8 244.2,-179.9 218.2,-197 							"/>
						</g>
						<g>
							<polygon class="st2" points="201.9,-260.5 189.9,-265.4 184.8,-253.4 205.8,-227 							"/>
							<polygon class="st2" points="239.1,-253.5 234.1,-265.4 222,-260.5 218.2,-227 							"/>
							<polygon class="st2" points="222.1,-163.5 234.1,-158.6 239.3,-170.7 218.2,-197 							"/>
							<polygon class="st2" points="184.9,-170.6 190.5,-159.2 202.1,-163.5 205.8,-197 							"/>
							<polygon class="st2" points="205,-264.6 201.9,-268.6 208,-268.6 208,-274.7 212,-271.6 216.1,-274.7 216.1,-268.6 
								222.1,-268.6 219.1,-264.6 222.1,-260.5 216.1,-260.5 216.1,-254.4 212,-257.5 208,-254.4 208,-260.5 201.9,-260.5 							
								"/>
							<polygon class="st2" points="205,-159.5 201.9,-163.5 208,-163.5 208,-169.6 212,-166.6 216.1,-169.6 216.1,-163.5 
								222.1,-163.5 219.1,-159.5 222.1,-155.4 216.1,-155.4 216.1,-149.4 212,-152.4 208,-149.4 208,-155.4 201.9,-155.4 							
								"/>
						</g>
						<g>
							<polygon class="st2" points="260.5,-222.1 265.4,-234.1 253.4,-239.3 227,-218.2 							"/>
							<polygon class="st2" points="253.5,-184.9 265.4,-189.9 260.5,-202.1 227,-205.8 							"/>
							<polygon class="st2" points="163.5,-201.9 159.2,-190.5 170.7,-184.8 197,-205.8 							"/>
							<polygon class="st2" points="170.6,-239.1 158.6,-234.1 163.5,-222 197,-218.2 							"/>
							<polygon class="st2" points="264.6,-219.1 268.6,-222.1 268.6,-216.1 274.7,-216.1 271.6,-212 274.7,-208 268.6,-208 
								268.6,-201.9 264.6,-205 260.5,-201.9 260.5,-208 254.4,-208 257.5,-212 254.4,-216.1 260.5,-216.1 260.5,-222.1 							"/>
							<polygon class="st2" points="159.5,-219.1 163.5,-222.1 163.5,-216.1 169.6,-216.1 166.6,-212 169.6,-208 163.5,-208 
								163.5,-201.9 159.5,-205 155.4,-201.9 155.4,-208 149.4,-208 152.4,-212 149.4,-216.1 155.4,-216.1 155.4,-222.1 							"/>
						</g>
					</g>
					<g>
						<polygon class="st2" points="169.9,-244.2 164.8,-244.9 169.1,-249.2 164.8,-253.5 169.9,-254.2 170.6,-259.2 174.9,-254.9 
							179.2,-259.2 179.9,-254.2 184.9,-253.5 180.6,-249.2 184.9,-244.9 179.9,-244.2 179.2,-239.1 174.9,-243.4 170.6,-239.1 
													"/>
						<polygon class="st2" points="244.2,-169.9 239.1,-170.6 243.4,-174.9 239.1,-179.2 244.2,-179.9 244.9,-184.9 249.2,-180.6 
							253.5,-184.9 254.2,-179.9 259.2,-179.2 254.9,-174.9 259.2,-170.6 254.2,-169.9 253.5,-164.8 249.2,-169.1 244.9,-164.8 
													"/>
					</g>
					<g>
						<polygon class="st2" points="244.2,-254.2 244.9,-259.2 249.2,-254.9 253.5,-259.2 254.2,-254.2 259.2,-253.5 254.9,-249.2 
							259.2,-244.9 254.2,-244.2 253.5,-239.1 249.2,-243.4 244.9,-239.1 244.2,-244.2 239.1,-244.9 243.4,-249.2 239.1,-253.5 
													"/>
						<polygon class="st2" points="169.9,-179.9 170.6,-184.9 174.9,-180.6 179.2,-184.9 179.9,-179.9 184.9,-179.2 180.6,-174.9 
							184.9,-170.6 179.9,-169.9 179.2,-164.8 174.9,-169.1 170.6,-164.8 169.9,-169.9 164.8,-170.6 169.1,-174.9 164.8,-179.2 
													"/>
					</g>
				</g>
				<g>
					<g>
						<polygon class="st2" points="75.8,-212 78.4,-218.2 72.2,-220.8 69.6,-227 63.4,-224.5 57.2,-227 54.6,-220.8 48.4,-218.2 
							51,-212 48.4,-205.8 54.6,-203.2 57.2,-197 63.4,-199.6 69.6,-197 72.2,-203.2 78.4,-205.8 						"/>
						<g>
							<polyline class="st2" points="57.2,-227 63.4,-257.5 69.6,-227 							"/>
							<polyline class="st2" points="69.6,-197 63.4,-166.6 57.2,-197 							"/>
							<polyline class="st2" points="48.4,-205.8 17.9,-212 48.4,-218.2 							"/>
							<polyline class="st2" points="78.4,-218.2 108.9,-212 78.4,-205.8 							"/>
							<polyline class="st2" points="57.2,-197 31.3,-179.9 48.4,-205.8 							"/>
							<polyline class="st2" points="69.6,-227 95.6,-244.2 78.4,-218.2 							"/>
							<polyline class="st2" points="48.4,-218.2 31.3,-244.2 57.2,-227 							"/>
							<polyline class="st2" points="78.4,-205.8 95.6,-179.9 69.6,-197 							"/>
						</g>
						<g>
							<polygon class="st2" points="53.3,-260.5 41.3,-265.4 36.2,-253.4 57.2,-227 							"/>
							<polygon class="st2" points="90.5,-253.5 85.5,-265.4 73.4,-260.5 69.6,-227 							"/>
							<polygon class="st2" points="73.5,-163.5 84.9,-159.2 90.6,-170.7 69.6,-197 							"/>
							<polygon class="st2" points="36.3,-170.6 41.3,-158.6 53.5,-163.5 57.2,-197 							"/>
							<polygon class="st2" points="56.3,-264.6 53.3,-268.6 59.3,-268.6 59.3,-274.7 63.4,-271.6 67.5,-274.7 67.5,-268.6 
								73.5,-268.6 70.5,-264.6 73.5,-260.5 67.5,-260.5 67.5,-254.4 63.4,-257.5 59.3,-254.4 59.3,-260.5 53.3,-260.5 							"/>
							<polygon class="st2" points="56.3,-159.5 53.3,-163.5 59.3,-163.5 59.3,-169.6 63.4,-166.6 67.5,-169.6 67.5,-163.5 
								73.5,-163.5 70.5,-159.5 73.5,-155.4 67.5,-155.4 67.5,-149.4 63.4,-152.4 59.3,-149.4 59.3,-155.4 53.3,-155.4 							"/>
						</g>
						<g>
							<polygon class="st2" points="111.9,-222.1 116.8,-234.1 104.7,-239.3 78.4,-218.2 							"/>
							<polygon class="st2" points="104.9,-184.9 116.2,-190.5 111.9,-202.1 78.4,-205.8 							"/>
							<polygon class="st2" points="14.9,-201.9 10,-189.9 22.1,-184.8 48.4,-205.8 							"/>
							<polygon class="st2" points="22,-239.1 10,-234.1 14.9,-222 48.4,-218.2 							"/>
							<polygon class="st2" points="116,-219.1 120,-222.1 120,-216.1 126.1,-216.1 123,-212 126.1,-208 120,-208 120,-201.9 
								116,-205 111.9,-201.9 111.9,-208 105.8,-208 108.9,-212 105.8,-216.1 111.9,-216.1 111.9,-222.1 							"/>
							<polygon class="st2" points="10.9,-219.1 14.9,-222.1 14.9,-216.1 21,-216.1 17.9,-212 21,-208 14.9,-208 14.9,-201.9 
								10.9,-205 6.8,-201.9 6.8,-208 0.8,-208 3.8,-212 0.8,-216.1 6.8,-216.1 6.8,-222.1 							"/>
						</g>
					</g>
					<g>
						<polygon class="st2" points="21.3,-244.2 16.2,-244.9 20.5,-249.2 16.2,-253.5 21.3,-254.2 22,-259.2 26.3,-254.9 
							30.5,-259.2 31.3,-254.2 36.3,-253.5 32,-249.2 36.3,-244.9 31.3,-244.2 30.5,-239.1 26.3,-243.4 22,-239.1 						"/>
						<polygon class="st2" points="95.6,-169.9 90.5,-170.6 94.8,-174.9 90.5,-179.2 95.6,-179.9 96.3,-184.9 100.6,-180.6 
							104.9,-184.9 105.6,-179.9 110.6,-179.2 106.3,-174.9 110.6,-170.6 105.6,-169.9 104.9,-164.8 100.6,-169.1 96.3,-164.8 
													"/>
					</g>
					<g>
						<polygon class="st2" points="95.6,-254.2 96.3,-259.2 100.6,-254.9 104.9,-259.2 105.6,-254.2 110.6,-253.5 106.3,-249.2 
							110.6,-244.9 105.6,-244.2 104.9,-239.1 100.6,-243.4 96.3,-239.1 95.6,-244.2 90.5,-244.9 94.8,-249.2 90.5,-253.5 						"/>
						<polygon class="st2" points="21.3,-179.9 22,-184.9 26.3,-180.6 30.5,-184.9 31.3,-179.9 36.3,-179.2 32,-174.9 36.3,-170.6 
							31.3,-169.9 30.5,-164.8 26.3,-169.1 22,-164.8 21.3,-169.9 16.2,-170.6 20.5,-174.9 16.2,-179.2 						"/>
					</g>
				</g>
				<g>
					<polyline class="st2" points="133.7,-200.4 137.7,-212 141.8,-200.4 					"/>
					<polyline class="st2" points="126.1,-216.1 137.7,-212 126.1,-208 					"/>
					<polyline class="st2" points="149.4,-216.1 137.7,-212 149.4,-208 					"/>
				</g>
				<g>
					<polyline class="st2" points="141.8,-75.1 137.7,-63.4 133.7,-75.1 					"/>
					<polyline class="st2" points="149.4,-59.3 137.7,-63.4 149.4,-67.5 					"/>
					<polyline class="st2" points="126.1,-59.3 137.7,-63.4 126.1,-67.5 					"/>
				</g>
				<g>
					<polyline class="st2" points="75.1,-133.7 63.4,-137.7 75.1,-141.8 					"/>
					<polyline class="st2" points="59.3,-126.1 63.4,-137.7 67.5,-126.1 					"/>
					<polyline class="st2" points="59.3,-149.4 63.4,-137.7 67.5,-149.4 					"/>
				</g>
				<g>
					<polyline class="st2" points="200.4,-141.8 212,-137.7 200.4,-133.7 					"/>
					<polyline class="st2" points="216.1,-149.4 212,-137.7 208,-149.4 					"/>
					<polyline class="st2" points="216.1,-126.1 212,-137.7 208,-126.1 					"/>
				</g>
			</g>
		</g>
	</g>
</pattern>
<defs>
	<filter id="Adobe_OpacityMaskFilter" filterUnits="userSpaceOnUse" x="-0.9" y="1.1" width="998.9" height="604.5">
		<feColorMatrix  type="matrix" values="1 0 0 0 0  0 1 0 0 0  0 0 1 0 0  0 0 0 1 0"/>
	</filter>
</defs>
<mask maskUnits="userSpaceOnUse" x="-0.9" y="1.1" width="998.9" height="604.5" id="SVGID_3_">
	<g class="st3">
		<polygon class="st4" points="999.3,1.1 999.3,605.6 -0.9,605.6 -0.9,1.1 		"/>
	</g>
</mask>
<linearGradient id="SVGID_4_" gradientUnits="userSpaceOnUse" x1="295.4365" y1="98.1025" x2="1097.1455" y2="899.8115" gradientTransform="matrix(6.123234e-17 -1 1 6.123234e-17 -0.4194 999.6451)">
	<stop  offset="0" style="stop-color:#E0B357"/>
	<stop  offset="0.3041" style="stop-color:#F5DB9C"/>
	<stop  offset="0.7948" style="stop-color:#D59F33"/>
	<stop  offset="1" style="stop-color:#BC8837"/>
</linearGradient>
<polygon class="st5" points="998,1.1 998,605.6 -0.9,605.6 -0.9,1.1 "/>
</svg>
