<?xml version="1.0" encoding="utf-8"?>
<!-- Generator: Adobe Illustrator 25.2.1, SVG Export Plug-In . SVG Version: 6.00 Build 0)  -->
<svg version="1.1" id="Layer_1" xmlns="http://www.w3.org/2000/svg" xmlns:xlink="http://www.w3.org/1999/xlink" x="0px" y="0px"
	 viewBox="0 0 149.8 195.2" style="enable-background:new 0 0 149.8 195.2;" xml:space="preserve">
<style type="text/css">
	.st0{fill:#002B3D;}
</style>
<path class="st0" d="M116.9,89.3l-1.1,1.1c-4.8,4.8-12.7,4.8-17.5,0L33.6,25.7c-4.8-4.8-4.8-12.7,0-17.5l1.1-1.1
	c4.8-4.8,12.7-4.8,17.5,0l64.7,64.7C121.7,76.6,121.7,84.4,116.9,89.3z"/>
<path class="st0" d="M13.8,184.4l0.9,1.3c3.9,5.6,11.6,7.1,17.2,3.2l97.5-67c5.6-3.9,7.1-11.6,3.2-17.2l-0.9-1.3
	c-3.9-5.6-11.6-7.1-17.2-3.2l-97.5,67C11.4,171.1,9.9,178.8,13.8,184.4z"/>
</svg>
